<?xml version="1.0" standalone="no"?>
<!DOCTYPE svg PUBLIC "-//W3C//DTD SVG 20010904//EN"
 "http://www.w3.org/TR/2001/REC-SVG-20010904/DTD/svg10.dtd">
<svg version="1.0" xmlns="http://www.w3.org/2000/svg"
 width="24" height="24" viewBox="0 0 32.000000 32.000000"
 preserveAspectRatio="xMidYMid meet">

<g transform="translate(0.000000,32.000000) scale(0.100000,-0.100000)"
fill="#000000" stroke="#000000" stroke-width="6">
<path d="M155 200 c-19 -13 -45 -19 -72 -18 -55 2 -73 -14 -73 -67 0 -36 4
-44 27 -54 31 -14 179 -16 214 -2 40 15 59 39 59 77 0 74 -86 109 -155 64z
m117 -7 c19 -17 24 -48 10 -57 -5 -3 -26 13 -47 34 l-39 40 29 0 c15 0 37 -7
47 -17z m-48 -32 c28 -29 34 -40 23 -44 -16 -6 -92 65 -81 76 12 12 19 8 58
-32z m-29 -49 c-23 -5 -79 49 -63 59 8 5 25 -4 46 -24 27 -25 30 -33 17 -35z
m-65 23 c29 -30 31 -35 14 -35 -11 0 -35 16 -54 35 -29 30 -31 35 -14 35 11 0
35 -16 54 -35z m-60 0 c20 -21 21 -25 6 -25 -26 0 -56 19 -56 35 0 23 24 18
50 -10z m217 -39 c-12 -31 -180 -50 -241 -26 -37 14 -35 43 2 33 41 -12 194
-9 217 4 23 13 30 10 22 -11z"/>
</g>
</svg>
