<?xml version="1.0" standalone="no"?>
<!DOCTYPE svg PUBLIC "-//W3C//DTD SVG 20010904//EN"
 "http://www.w3.org/TR/2001/REC-SVG-20010904/DTD/svg10.dtd">
<svg version="1.0" xmlns="http://www.w3.org/2000/svg"
 width="24" height="24" viewBox="0 0 32.000000 32.000000"
 preserveAspectRatio="xMidYMid meet">

<g transform="translate(0.000000,32.000000) scale(0.100000,-0.100000)"
fill="#000000" stroke="#000000" stroke-width="6">
<path d="M66 265 c-20 -19 -40 -35 -45 -35 -20 0 -21 -40 -2 -77 12 -22 20
-31 21 -20 0 11 8 17 23 18 17 1 15 3 -10 10 -18 5 -35 13 -38 18 -7 12 5 41
16 41 5 0 26 16 46 36 l37 37 20 -24 c23 -26 76 -54 76 -39 0 5 -10 12 -22 16
-12 4 -31 17 -41 30 -25 32 -40 30 -81 -11z"/>
<path d="M150 203 c-27 -10 -60 -46 -60 -65 0 -20 4 -20 133 -20 42 0 77 -2
77 -4 0 -10 -41 -84 -46 -84 -3 0 -3 15 0 32 l6 33 -15 -32 c-20 -44 -35 -42
-37 5 l-1 37 -4 -34 c-3 -19 -12 -41 -21 -48 -15 -10 -9 -12 34 -13 l51 0 27
61 c32 74 32 80 1 109 -18 17 -39 24 -77 26 -29 2 -60 1 -68 -3z m106 -13 c26
-10 53 -36 54 -52 0 -5 -47 -8 -105 -8 -58 0 -105 4 -105 8 0 11 41 48 60 55
25 9 67 8 96 -3z"/>
<path d="M12 88 c-18 -18 -14 -56 7 -68 11 -5 44 -10 74 -10 62 0 80 14 75 57
-3 27 -4 28 -73 31 -46 2 -74 -1 -83 -10z m146 -15 c3 -10 -15 -13 -67 -13
-57 0 -71 3 -71 15 0 13 12 15 67 13 42 -2 68 -8 71 -15z m-3 -33 c-8 -13
-132 -13 -140 0 -4 6 22 10 70 10 48 0 74 -4 70 -10z"/>
</g>
</svg>
