<?xml version="1.0" standalone="no"?>
<!DOCTYPE svg PUBLIC "-//W3C//DTD SVG 20010904//EN"
 "http://www.w3.org/TR/2001/REC-SVG-20010904/DTD/svg10.dtd">
<svg version="1.0" xmlns="http://www.w3.org/2000/svg"
 width="24" height="24" viewBox="0 0 32.000000 32.000000"
 preserveAspectRatio="xMidYMid meet">

<g transform="translate(0.000000,32.000000) scale(0.100000,-0.100000)"
fill="#000000" stroke="#000000" stroke-width="6">
<path d="M190 314 c0 -3 7 -12 15 -21 20 -19 32 -9 15 12 -12 15 -30 20 -30 9z"/>
<path d="M170 304 c0 -12 122 -134 135 -134 5 0 -3 13 -18 28 -21 22 -24 31
-15 40 9 9 8 16 -5 29 -13 13 -20 14 -29 5 -9 -9 -18 -6 -40 15 -15 15 -28 22
-28 17z m90 -60 c0 -14 -3 -14 -15 -4 -8 7 -15 14 -15 16 0 2 7 4 15 4 8 0 15
-7 15 -16z"/>
<path d="M215 220 c38 -38 72 -70 74 -70 3 0 -26 32 -64 70 -38 39 -72 70 -74
70 -3 0 26 -31 64 -70z"/>
<path d="M130 274 c0 -5 32 -41 70 -79 39 -38 70 -65 70 -59 0 5 -31 41 -70
79 -38 38 -70 65 -70 59z"/>
<path d="M174 193 c39 -40 79 -92 90 -115 13 -27 29 -44 41 -45 18 -3 18 -2
-2 6 -11 5 -24 23 -27 38 -4 19 -37 59 -89 109 l-82 79 69 -72z"/>
<path d="M77 202 c-20 -21 -27 -38 -27 -68 0 -30 -6 -47 -25 -64 -14 -13 -23
-26 -20 -28 3 -3 16 5 30 18 19 18 25 34 25 66 0 31 7 51 26 73 32 39 27 40
-9 3z"/>
<path d="M280 224 c0 -3 7 -12 15 -21 20 -19 32 -9 15 12 -12 15 -30 20 -30 9z"/>
<path d="M127 203 c-5 -7 -5 -17 -2 -23 8 -13 35 -13 35 1 0 5 -4 8 -9 4 -5
-3 -11 3 -13 12 -3 13 -6 15 -11 6z"/>
<path d="M170 146 c0 -21 20 -30 33 -17 8 8 6 11 -7 11 -9 0 -14 5 -11 10 3 6
1 10 -4 10 -6 0 -11 -6 -11 -14z"/>
<path d="M195 85 c-21 -17 -42 -25 -71 -25 -30 0 -46 -6 -64 -25 -13 -14 -21
-27 -18 -30 2 -3 15 6 28 20 18 19 34 25 65 25 33 0 47 6 70 30 35 36 31 38
-10 5z"/>
</g>
</svg>
