<?xml version="1.0" standalone="no"?>
<!DOCTYPE svg PUBLIC "-//W3C//DTD SVG 20010904//EN"
 "http://www.w3.org/TR/2001/REC-SVG-20010904/DTD/svg10.dtd">
<svg version="1.0" xmlns="http://www.w3.org/2000/svg"
 width="24" height="24" viewBox="0 0 32.000000 32.000000"
 preserveAspectRatio="xMidYMid meet">

<g transform="translate(0.000000,32.000000) scale(0.100000,-0.100000)"
fill="#000000" stroke="#000000" stroke-width="6">
<path d="M165 269 c-16 -5 -38 -6 -48 -3 -21 6 -77 -14 -77 -27 0 -5 -6 -9
-13 -9 -9 0 -12 -15 -12 -47 2 -75 3 -80 31 -112 25 -30 28 -31 113 -31 95 0
117 11 140 72 14 38 8 121 -10 126 -8 3 -26 13 -41 23 -29 21 -38 22 -83 8z
m55 -9 c0 -5 8 -10 18 -10 11 0 5 -7 -17 -21 -33 -20 -35 -20 -48 -3 -22 30
-20 32 40 43 4 0 7 -3 7 -9z m-84 -10 c24 0 15 -17 -15 -30 -23 -9 -34 -9 -51
0 l-22 12 23 13 c13 7 30 11 37 9 8 -2 20 -4 28 -4z m154 -40 c0 -11 -7 -20
-16 -20 -8 0 -12 5 -9 10 3 6 2 10 -4 10 -5 0 -13 -4 -16 -10 -3 -5 -16 -10
-28 -10 l-22 1 24 19 c31 27 71 27 71 0z m-205 -11 c3 -4 -8 -7 -25 -7 -16 1
-30 6 -30 13 0 13 47 9 55 -6z m85 6 c11 -13 7 -15 -25 -15 -32 0 -36 2 -25
15 7 8 18 15 25 15 7 0 18 -7 25 -15z m130 -50 c0 -13 -22 -15 -140 -15 -118
0 -140 2 -140 15 0 13 22 15 140 15 118 0 140 -2 140 -15z m-10 -34 c0 -5 -12
-23 -26 -40 -25 -30 -29 -31 -104 -31 -75 0 -79 1 -104 31 -14 17 -26 35 -26
40 0 5 57 9 130 9 73 0 130 -4 130 -9z"/>
</g>
</svg>
