<?xml version="1.0" standalone="no"?>
<!DOCTYPE svg PUBLIC "-//W3C//DTD SVG 20010904//EN"
 "http://www.w3.org/TR/2001/REC-SVG-20010904/DTD/svg10.dtd">
<svg version="1.0" xmlns="http://www.w3.org/2000/svg"
 width="24" height="24" viewBox="0 0 32.000000 32.000000"
 preserveAspectRatio="xMidYMid meet">

<g transform="translate(0.000000,32.000000) scale(0.100000,-0.100000)"
fill="#000000" stroke="#000000" stroke-width="6">
<path d="M258 281 c-18 -15 -34 -18 -64 -14 -58 7 -78 -15 -70 -76 l6 -45 -29
28 -29 28 -18 -27 c-16 -24 -16 -29 -2 -53 15 -26 15 -29 -8 -55 -41 -47 -28
-64 20 -26 l27 22 16 -22 c12 -17 18 -20 29 -10 8 6 14 18 14 26 0 8 4 12 9 8
18 -11 23 16 6 35 -23 25 -13 38 25 32 42 -6 72 22 68 63 -1 21 6 41 20 60 36
46 25 61 -20 26z m12 -15 c0 -2 -8 -10 -17 -17 -16 -13 -17 -12 -4 4 13 16 21
21 21 13z m-45 -31 c14 -13 25 -32 25 -41 0 -24 -29 -54 -52 -54 -26 0 -68 44
-68 72 0 17 3 19 9 9 13 -21 44 -5 38 19 -7 28 18 26 48 -5z m-55 1 c0 -3 -4
-8 -10 -11 -5 -3 -10 -1 -10 4 0 6 5 11 10 11 6 0 10 -2 10 -4z m-77 -89 c-3
-5 -1 -7 5 -3 6 3 14 2 17 -4 5 -8 12 -7 23 2 15 11 15 11 5 -3 -10 -12 -9
-20 3 -37 9 -13 11 -22 4 -22 -6 0 -14 -9 -18 -21 -7 -18 -12 -14 -46 36 -30
45 -35 59 -25 71 9 11 15 11 25 3 8 -6 11 -16 7 -22z m-13 -71 c0 -2 -8 -10
-17 -17 -16 -13 -17 -12 -4 4 13 16 21 21 21 13z"/>
</g>
</svg>
