<?xml version="1.0" standalone="no"?>
<!DOCTYPE svg PUBLIC "-//W3C//DTD SVG 20010904//EN"
 "http://www.w3.org/TR/2001/REC-SVG-20010904/DTD/svg10.dtd">
<svg version="1.0" xmlns="http://www.w3.org/2000/svg"
 width="24" height="24" viewBox="0 0 32.000000 32.000000"
 preserveAspectRatio="xMidYMid meet">

<g transform="translate(0.000000,32.000000) scale(0.100000,-0.100000)"
fill="#000000" stroke="#000000" stroke-width="6">
<path d="M51 312 c-1 -7 3 -21 9 -31 6 -12 5 -29 -3 -50 -11 -31 -10 -34 21
-62 27 -25 41 -29 88 -29 63 0 96 13 88 35 -8 19 16 20 40 2 15 -11 15 -15 4
-24 -20 -16 -88 -33 -136 -33 -86 0 -182 39 -138 56 9 3 16 10 16 15 0 6 -10
5 -21 -2 -46 -24 1 -142 70 -175 41 -20 126 -14 165 11 30 20 66 90 66 129 0
21 -7 30 -32 41 -18 7 -35 9 -38 4 -3 -5 -14 4 -23 20 -36 61 -113 102 -132
71 -10 -16 -21 -12 -33 13 -6 12 -11 16 -11 9z m124 -53 c37 -33 71 -86 61
-96 -3 -3 -28 -8 -56 -11 -35 -3 -57 0 -74 12 -32 21 -47 48 -36 66 7 12 17 8
54 -18 24 -18 50 -32 57 -32 7 0 -9 14 -34 31 -56 37 -62 45 -47 64 18 22 35
18 75 -16z m-45 -146 c41 -3 95 0 120 5 24 6 47 9 49 6 8 -8 -32 -76 -54 -89
-63 -41 -161 -25 -200 33 -30 44 -33 67 -7 57 9 -4 51 -9 92 -12z"/>
</g>
</svg>
