<?xml version="1.0" standalone="no"?>
<!DOCTYPE svg PUBLIC "-//W3C//DTD SVG 20010904//EN"
 "http://www.w3.org/TR/2001/REC-SVG-20010904/DTD/svg10.dtd">
<svg version="1.0" xmlns="http://www.w3.org/2000/svg"
 width="24" height="24" viewBox="0 0 32.000000 32.000000"
 preserveAspectRatio="xMidYMid meet">

<g transform="translate(0.000000,32.000000) scale(0.100000,-0.100000)"
fill="#000000" stroke="#000000" stroke-width="6">
<path d="M201 298 c1 -13 -3 -41 -9 -62 -6 -22 -9 -42 -7 -44 3 -3 7 4 10 14
15 48 32 69 55 69 39 0 54 -44 55 -155 l0 -95 -44 -3 c-67 -5 -72 -1 -53 52
15 41 15 49 2 73 -8 14 -22 29 -30 31 -12 4 -11 1 3 -15 25 -29 22 -86 -7
-120 -49 -57 -146 -25 -162 53 -5 24 0 37 22 64 25 29 26 32 6 21 -48 -26 -56
-92 -16 -140 32 -39 83 -50 130 -27 20 9 34 11 34 5 0 -6 24 -9 63 -7 l62 3 3
85 c2 48 -2 105 -10 130 -7 25 -11 55 -9 68 2 20 -1 22 -49 22 -47 0 -51 -2
-49 -22z m89 2 c0 -5 -18 -10 -40 -10 -22 0 -40 5 -40 10 0 6 18 10 40 10 22
0 40 -4 40 -10z"/>
<path d="M110 210 c0 -6 -11 -8 -27 -4 -22 5 -26 4 -16 -6 6 -7 10 -18 7 -24
-2 -6 7 -16 21 -23 20 -9 25 -8 25 2 0 8 7 11 18 8 13 -3 18 2 18 16 0 14 -7
21 -19 21 -10 0 -15 5 -12 10 3 6 1 10 -4 10 -6 0 -11 -5 -11 -10z"/>
</g>
</svg>
